<svg xmlns="http://www.w3.org/2000/svg" xmlns:xlink="http://www.w3.org/1999/xlink" width="229.07" height="200.744" viewBox="0 0 229.07 200.744"><defs><linearGradient id="a" y1="0.5" x2="1" y2="0.5" gradientUnits="objectBoundingBox"><stop offset="0" stop-color="#9bbeff"/><stop offset="0.05" stop-color="#96bbff"/><stop offset="1" stop-color="#377dff"/></linearGradient><linearGradient id="b" x1="0" y1="0.5" x2="1.001" y2="0.5" xlink:href="#a"/><linearGradient id="c" x1="0" y1="0.501" x2="1.001" y2="0.501" xlink:href="#a"/><linearGradient id="d" x1="-0.001" y1="0.502" x2="1" y2="0.502" xlink:href="#a"/><linearGradient id="e" x1="0" y1="0.5" x2="1.001" y2="0.5" xlink:href="#a"/><linearGradient id="f" x1="-0.001" y1="0.498" x2="1" y2="0.498" xlink:href="#a"/><linearGradient id="g" x1="0" y1="0.502" x2="1.001" y2="0.502" xlink:href="#a"/><linearGradient id="h" x1="-0.001" y1="0.496" x2="1.001" y2="0.496" xlink:href="#a"/><linearGradient id="i" x1="-0.001" y1="0.5" x2="1" y2="0.5" xlink:href="#a"/></defs><g transform="translate(-78.5 -27.678)"><g transform="translate(79.251 27.678)"><path d="M128.485,52.339c7.481.5,10.616-4.6,14.108-11.151,9.619-17.955,31.065-16.245,38.226-5.166,5.094,7.838,16.067,6.234,24.938,3.171,8.728-3.028,23.62-5.914,35.483-2.316,10.367,3.135,14.606,14.5,24.047,13.823,20.591-1.532,30.994,18.81,27.253,27.681-2.423,5.807-3.634,12.255-1.674,18.24,2.173,6.555,7.161,11.756,11.186,17.385s7.268,12.683,5.273,19.309c-1.71,5.664-6.84,9.583-10.011,14.606-9.833,15.568-.107,39.4-13.217,52.333-9.405,9.263-24.724,7.125-37.87,8.906-10.973,1.461-21.268,6.092-32.205,7.873-22.088,3.669-44.425-4.382-66.833-4.631-7.909-.071-15.924.784-23.584-1.14A32.8,32.8,0,0,1,101.2,190.992c-4.881-13.538-.249-29.248-5.771-42.572-4.489-10.83-15.5-19.665-14.784-31.386.427-7.3,5.415-13.4,8.835-19.843C94.712,87.608,87.944,49.631,128.485,52.339Zm65.23-17.563c-1.959,0-3.563,1.211-3.563,2.743s1.6,2.6,3.563,2.743c6.377.427,6.377-2.173,6.377-3.669C200.127,34.134,195.674,34.776,193.715,34.776ZM258.66,46.389a10.638,10.638,0,0,0,6.128,2.387,2.371,2.371,0,0,0,1.71-.392,1.4,1.4,0,0,0,.143-1.959,3.668,3.668,0,0,0-1.211-.677,3.488,3.488,0,0,1-1.853-1.389,1.243,1.243,0,0,0-.427-.534C261.866,43.147,256.38,44.537,258.66,46.389Zm10.866,2.423a2.962,2.962,0,0,0,1.746-.178c.356-.107.819-.392.712-.748-.036-.178-.214-.285-.392-.392a2.445,2.445,0,0,0-2.458-.178C268.421,47.85,268.955,48.6,269.525,48.812Zm26.006,51.372a4.937,4.937,0,0,0,1.14,2.28,18.915,18.915,0,0,0,3.242,3.705,3.408,3.408,0,0,0,1.888.855,3.026,3.026,0,0,0,1.781-.641,5.532,5.532,0,0,0,2.28-3.883c.249-2.1-.748-4.168-1.888-5.949a7.608,7.608,0,0,0-2.708-2.814c-1.995-1-3.278-.143-3.848,1.639C296.921,96.942,295.318,98.367,295.532,100.183ZM84.63,149.275c-1.033.926-.107,3.6.214,5.379a3.2,3.2,0,0,0,.57,1.5,3.761,3.761,0,0,0,1.924,1.033c1.282.356,2.814.677,3.776-.214a3.631,3.631,0,0,0,.819-2.708,22.381,22.381,0,0,0-.143-2.672,2.16,2.16,0,0,0-1.639-2.173C88.335,148.634,85.664,148.349,84.63,149.275Zm63.8,67.4c-.606.107-1.354.392-1.461,1a1.447,1.447,0,0,0,.784,1.247c3.42,2.529,7.98,2.708,12.255,2.779a4.018,4.018,0,0,0,1.461-.178,1.876,1.876,0,0,0,.926-2.458,2.993,2.993,0,0,0-.641-.855C158.339,214.861,152.71,215.823,148.435,216.678Zm85.073-1.71c-3.848,2.814.036,5.308,4.916,3.456a69.509,69.509,0,0,1,7.8-2.672c.855-.214,6.092-1.354,6.092-2.529,0-3.1-5.914-2.387-9.619-1.853A18.706,18.706,0,0,0,233.508,214.968Z" transform="translate(-80.607 -27.678)" fill="#f2f2f2"/></g><path d="M364.229,178.31l-26.683-26.683a3.19,3.19,0,0,0-2.209-.926H290.271A11.487,11.487,0,0,0,278.8,162.171v83.434a11.487,11.487,0,0,0,11.471,11.471h63.413a11.487,11.487,0,0,0,11.471-11.471V180.518a3.431,3.431,0,0,0-.926-2.209Z" transform="translate(-128.943 -79.195)" fill="#0074e8"/><path d="M364.95,262.108H301.537a5.245,5.245,0,0,1-5.237-5.237V173.437a5.245,5.245,0,0,1,5.237-5.237h41.931v15.248a11.487,11.487,0,0,0,11.471,11.471h15.248v61.952a5.245,5.245,0,0,1-5.237,5.237Z" transform="translate(-140.208 -90.46)" fill="#0051c6"/><g transform="translate(163.217 82.157)"><path d="M446.2,180.6l16.067,16.067h-10.83a5.245,5.245,0,0,1-5.237-5.237Z" transform="translate(-399.923 -180.6)" fill="url(#a)"/><path d="M332.759,281.9H319.4a3.1,3.1,0,0,0-3.1,3.1v13.359a3.1,3.1,0,0,0,3.1,3.1h13.359a3.1,3.1,0,0,0,3.1-3.1V285a3.057,3.057,0,0,0-3.1-3.1Zm-3.1,13.359h-7.125v-7.125h7.125Z" transform="translate(-316.3 -245.812)" fill="url(#b)"/><path d="M332.759,356.8H319.4a3.1,3.1,0,0,0-3.1,3.1v13.359a3.1,3.1,0,0,0,3.1,3.1h13.359a3.1,3.1,0,0,0,3.1-3.1V359.9A3.057,3.057,0,0,0,332.759,356.8Zm-3.1,13.359h-7.125v-7.125h7.125Z" transform="translate(-316.3 -294.028)" fill="url(#c)"/><path d="M391.3,285a3.1,3.1,0,0,0,3.1,3.1h13.359a3.1,3.1,0,1,0,0-6.2H394.4A3.1,3.1,0,0,0,391.3,285Z" transform="translate(-364.581 -245.812)" fill="url(#d)"/><path d="M421.083,319.4H394.4a3.1,3.1,0,1,0,0,6.2h26.683a3.1,3.1,0,0,0,3.1-3.1A3.057,3.057,0,0,0,421.083,319.4Z" transform="translate(-364.581 -269.952)" fill="url(#e)"/><path d="M394.4,363.1h13.359a3.1,3.1,0,1,0,0-6.2H394.4a3.1,3.1,0,1,0,0,6.2Z" transform="translate(-364.581 -294.093)" fill="url(#f)"/><path d="M421.083,394.3H394.4a3.1,3.1,0,1,0,0,6.2h26.683a3.1,3.1,0,0,0,3.1-3.1A3.057,3.057,0,0,0,421.083,394.3Z" transform="translate(-364.581 -318.169)" fill="url(#g)"/><path d="M319.5,203.9h16.673a3.1,3.1,0,0,0,0-6.2H319.5a3.1,3.1,0,0,0-3.1,3.1A3.057,3.057,0,0,0,319.5,203.9Z" transform="translate(-316.363 -191.608)" fill="url(#h)"/><path d="M319.5,241.3h26.683a3.1,3.1,0,0,0,0-6.2H319.5a3.1,3.1,0,0,0-3.1,3.1A3.057,3.057,0,0,0,319.5,241.3Z" transform="translate(-316.363 -215.684)" fill="url(#i)"/></g><g transform="translate(78.5 34.241)"><g transform="translate(0 0)" opacity="0.384"><circle cx="8.016" cy="8.016" r="8.016" transform="translate(129.996)" fill="#75b9be"/><circle cx="5.166" cy="5.166" r="5.166" transform="translate(64.054 170.574)" fill="#75b9be"/><circle cx="5.166" cy="5.166" r="5.166" transform="translate(0 76.345)" fill="#75b9be"/><circle cx="5.166" cy="5.166" r="5.166" transform="translate(125.329 150.766)" fill="#dfbbb1"/><rect width="8.479" height="8.479" transform="translate(197.862 24.51)" fill="#f56476"/><rect width="8.479" height="8.479" transform="translate(189.384 113.074)" fill="#f56476"/><rect width="8.479" height="9.405" transform="translate(5.629 126.256)" fill="#373f51"/><path d="M-863.954-323.3l4.346,8.693H-868.3Z" transform="translate(904.709 356.289)" fill="#d8d8d8"/><path d="M-810.354-50.5l4.346,8.693H-814.7Z" transform="translate(870.204 180.675)" fill="#d8d8d8"/><path d="M-363.5-172.3l7.8,7.8-7.8,7.8-7.8-7.8Z" transform="translate(584.766 259.083)" fill="#dad6d6"/><path d="M-759.476-386.7l4.524,2.244v4.524l-4.524,2.244L-764-379.931v-4.524Z" transform="translate(837.566 397.103)" fill="#007aff"/><path d="M-481.776,32.3l4.524,2.244v4.524l-4.524,2.244-4.524-2.244V34.58Z" transform="translate(658.797 127.372)" fill="#007aff"/></g></g><g transform="translate(146.314 122.114)"><path d="M293.076,301.715c-.962,2.316-2.066,4.56-3.206,6.769-.356.713-.748,1.389-1.1,2.1a1.606,1.606,0,0,0,0,1.283,1.089,1.089,0,0,0,.819.748,1.517,1.517,0,0,1,.5,1.6c-.107,1.069-.214,2.138-.427,3.206a5.137,5.137,0,0,0,.57,3.954c-1.176.5-1.318.641-1.674,1.781a5.044,5.044,0,0,0-.071,1.033,26.861,26.861,0,0,1,.071,2.921,9.85,9.85,0,0,0-.534,3.028l-5.451,40.613a11.938,11.938,0,0,1-1.461,4.7c-.926-1.888-.285-3.634-.57-5.273-.071-2.993-.321-6.021-.356-9.013-.036-1.995-.392-3.99-.427-6.021a22.5,22.5,0,0,1-.036-3.1c.143-1.746.392-3.491.641-5.237q2.992-22.551,6.021-45.066c.107-.784-1.247-.534-.071-2.422,2.779-6.234,3.028-6.377,5.237-6.555a2.686,2.686,0,0,1,3.206,2.494A8.642,8.642,0,0,1,293.076,301.715Z" transform="translate(-275.817 -292.759)" fill="#fcb8b1"/><path d="M280.2,431.473c.107-.071.071.641.142.784a2.215,2.215,0,0,1,.392,1.817,22,22,0,0,0,.071,3.064c.214-1.318.784-2.494.962-3.776q2.779-20.948,5.593-41.931c.071-.428.107-.891.178-1.318a.875.875,0,0,1,.677-.713.607.607,0,0,1-.036.249c.178.285-.107.677.142.962a.607.607,0,0,1-.036.249c.178.285-.107.677.142.962.036.071.143.178.143.249.57,4.667,1.532,9.263,2.422,13.858a.766.766,0,0,1,0,.285,8.572,8.572,0,0,0-.428,2.316q-2.618,19.451-5.2,38.9a16.59,16.59,0,0,1-.428,2.316c-.321,1.069-.926,1.746-2.138,1.532a6.973,6.973,0,0,1-2.1-.5,1.761,1.761,0,0,1-1.461-2.137c.321-4.916.784-8.443.784-13.359-.036-.143.107-1.888.071-2.031" transform="translate(-275.521 -354.971)" fill="#fbb5ae"/><path d="M279.274,310.661a4.162,4.162,0,0,0,.392-.178c.249-.142.392-.036.427.178a1.541,1.541,0,0,1,.036.57,10.292,10.292,0,0,1-.143,1.033q-3.153,23.513-6.306,46.99a4.157,4.157,0,0,1-.427,1.853.839.839,0,0,0-.107.712,5,5,0,0,1-.071,1.924c-.926-.321.036-1.1-.356-1.567h0c-.5-.891-.143-1.817-.249-2.743h0c-.891-3.456-.855-7.018-1.389-10.545-.143-.926-.214-1.853-.356-2.779-.036-.356-.036-.713-.071-1.033a1.335,1.335,0,0,1-.036-.392,3.761,3.761,0,0,0-.071-.891c-.036-.107-.036-.214-.071-.356-.036-.285-.036-.57-.071-.855-.036-.107-.036-.214-.071-.356a5.05,5.05,0,0,0-.143-.713,1.211,1.211,0,0,1-.036-.356,4.827,4.827,0,0,0-.071-.713c-.036-.107-.036-.249-.071-.356-.036-.285-.036-.57-.071-.855-.036-.107-.036-.249-.071-.356a5.034,5.034,0,0,0-.143-.712,1.213,1.213,0,0,1-.036-.356,4.824,4.824,0,0,0-.071-.712c-.036-.107-.036-.249-.071-.356-.036-.285-.036-.57-.071-.891-.036-.107-.036-.249-.071-.356a5.042,5.042,0,0,0-.143-.713,1.211,1.211,0,0,1-.036-.356,4.827,4.827,0,0,0-.071-.713c-.036-.107-.036-.249-.071-.356-.036-.285-.036-.606-.071-.891-.036-.107-.036-.249-.071-.356a5.171,5.171,0,0,0-.071-1.283,1.445,1.445,0,0,1,0-.392,7.443,7.443,0,0,0,.285-1.746.705.705,0,0,1,.071-.392c.285-.392.356-.855.641-1.247h0c.285-.214.107-.641.427-.855h0c.178-.143.178-.427.356-.57h0c.178-.142.178-.427.356-.57h0c.214-.142.178-.392.356-.534h0c.214-.143.178-.392.356-.534a.514.514,0,0,0,.071-.249c.178-.178.143-.463.392-.606h0a.572.572,0,0,0,.178-.392.474.474,0,0,1,.107-.285c.071-.142.142-.249.214-.392a1.083,1.083,0,0,1,.178-.249c.071-.143.178-.285.249-.428.036-.107.107-.214.143-.321a1.145,1.145,0,0,1,.534-.748,3.973,3.973,0,0,0,1.069-1.568c.926-1.781,1.817-3.562,2.743-5.379.107-.214.178-.463.427-.57.214-.143.214-.356.249-.606a1.04,1.04,0,0,1,.071-.321c.107-.214.178-.392.285-.606.036-.107.107-.178.142-.285a1.582,1.582,0,0,1,.285-.392C279.2,310.732,279.238,310.7,279.274,310.661Z" transform="translate(-268.855 -304.127)" fill="#fdbab3"/><path d="M288.8,481.11c1.568.107,1.6.071,2.031-1.425a6.573,6.573,0,0,0,.214-1.461q2.672-19.879,5.344-39.793c.036-.392.107-.784.178-1.176a1.043,1.043,0,0,1,.712-.855h0c.142.178.036.463.214.641h0c.249.249-.107.677.214.926.428,1.069.891,2.173,1.318,3.242.57,1.389,1.14,2.814,1.71,4.2.036.143.036.285.071.428a16.353,16.353,0,0,0-.57,3.206c-1.425,10.581-2.85,21.2-4.275,31.778-.143,1.033-.107,2.316-1.71,2.244a11.093,11.093,0,0,1-2.423-.392C290.866,482.107,289.441,482.357,288.8,481.11Z" transform="translate(-281.695 -385.227)" fill="#fab2ab"/><path d="M303.3,499.836a3.461,3.461,0,0,1,.606.036.627.627,0,0,0,.748-.534c.071-.427.143-.891.178-1.318,1.461-11.008,2.957-21.981,4.418-32.989.036-.392.107-.784.178-1.176a1.043,1.043,0,0,1,.713-.855h0c.142.178.036.463.249.641h0a1.279,1.279,0,0,0,.249.356h0c.142.178.071.463.249.606.356.677.748,1.389,1.069,2.066.5,1.069,1,2.138,1.461,3.206a3.066,3.066,0,0,1,.463,1.389,4.134,4.134,0,0,0-.392,1.71c-1.14,8.55-2.28,17.064-3.456,25.615-.142,1.069-.214,2.209-1.639,2.458a24.384,24.384,0,0,1-3.954-.392C303.906,500.585,303.407,500.478,303.3,499.836Z" transform="translate(-291.029 -402.351)" fill="#f8b0a9"/><path d="M317.4,515.4c.071-.036.178-.143.249-.143a.817.817,0,0,0,.784-.891,10.291,10.291,0,0,1,.142-1.033c1.176-8.693,2.316-17.349,3.491-26.042.036-.392.107-.784.143-1.176.071-.5.392-.285.677-.214h-.036a.814.814,0,0,0,.249.356h0c.142.178.036.463.249.641h0a.815.815,0,0,0,.249.356c1.14,1.959,2.031,4.061,3.028,6.092a.7.7,0,0,1,.036.285,4.15,4.15,0,0,0-.784,2.494c-.784,5.736-1.532,11.436-2.316,17.171a2.984,2.984,0,0,1-1,2.387c-1,.641-2.1.285-3.135.427C318.718,515.975,317.9,516.117,317.4,515.4Z" transform="translate(-300.106 -417.029)" fill="#f7ada7"/><path d="M337.961,512.128a.847.847,0,0,0,.071.819,4.079,4.079,0,0,1,.534,1.283c-.356,4.6-1.1,9.156-1.781,13.716a2.149,2.149,0,0,1-.392.926c-.784.891-1.924.641-2.921.891-.891-.071-1.853.5-2.672-.321a1.99,1.99,0,0,0,.819-1.6c.819-6.234,1.674-12.469,2.494-18.7.071-.427.142-.891.214-1.318a.5.5,0,0,1,.356-.427c.178-.036.356.107.57.143h0a.814.814,0,0,0,.249.356h0c.143.178.071.463.249.606a11.282,11.282,0,0,1,1.354,2.494A3.011,3.011,0,0,0,337.961,512.128Z" transform="translate(-308.732 -430.923)" fill="#f6aba5"/><path d="M345.436,355.651a.694.694,0,0,1,.285.036c.285-.214.641.071.926-.178h0c.285-.214.677.036.962-.178a.3.3,0,0,0,.249,0c.285-.214.641.071.926-.178a.394.394,0,0,0,.285,0c.285-.214.641.071.926-.143h0c.392-.285.855.143,1.211-.143h0c.392-.249.855.143,1.247-.107a.606.606,0,0,0,.249.036c.392-.249.855.142,1.247-.143a.785.785,0,0,0,.285.036c.392-.249.855.143,1.247-.107a.784.784,0,0,0,.285.036,4.094,4.094,0,0,1,2.351.321h0c.143.214.392.178.57.356h0c.071.107.178.214.249.321h0c.142.178.036.463.178.641a.607.607,0,0,0-.036.249c-.285.214-.107.641-.428.855h0a1.28,1.28,0,0,1-.356.249h0a1.282,1.282,0,0,1-.356.249h0c-.178.178-.463.071-.641.249h0c-.178.142-.463.071-.641.214h0c-.178.143-.463.071-.641.214h0c-.285.249-.641-.071-.926.178h0c-.285.214-.641-.071-.926.178a5.313,5.313,0,0,0-.748-.071c-3.527.321-7.089.463-10.652.677a12.633,12.633,0,0,1-3.064.143c.356-1.033,1.354-.57,2.031-.891a3.553,3.553,0,0,0,2.209-2.138,5.242,5.242,0,0,1,.748-1.389C345.293,355.01,345.222,355.58,345.436,355.651Z" transform="translate(-314.461 -332.551)" fill="#ffbeb6"/><path d="M346.844,337.269a.808.808,0,0,0-.392.57,6.806,6.806,0,0,1-1.176,2.173,2.125,2.125,0,0,1-1.639,1.033c-1.389.249-1.389-.784-1.354-1.639a41.034,41.034,0,0,1,.5-4.2,19.284,19.284,0,0,0,.321-3.491,10.794,10.794,0,0,1,1.71-1.389,16.045,16.045,0,0,0,2.886-2.707,5.929,5.929,0,0,1,.819-.819c1.1-.677.855.356.855.784-.036,1.425-.356,2.779-.5,4.2-.071.57-.214,1.176.285,1.639a.545.545,0,0,1-.142.641h0c-.178.143-.178.428-.392.57h0c-.178.142-.178.428-.356.57h0c-.178.143-.178.427-.356.57a.506.506,0,0,0-.071.214c-.142.178-.142.463-.392.606h0c-.178.142-.178.427-.356.57h0C347.057,337.091,347.022,337.269,346.844,337.269Z" transform="translate(-316.119 -314.526)" fill="#f5a9a3"/><path d="M360.177,317.64c-.606.036-.819-.071-.784-.5a6.624,6.624,0,0,1,.142-1.176c.214-1.532.428-3.1.606-4.631.071-.5-.285-.392-.57-.356a3.262,3.262,0,0,1,.641-1.14,18.716,18.716,0,0,0,2.351-5.059q.374-1.282.641-2.565c.107-.142.178-.142.214.036h0c.356.677.926,1.247,1.247,1.959h0a3.08,3.08,0,0,1,.249.356h0a1.28,1.28,0,0,1,.249.356h0a1.28,1.28,0,0,1,.249.356h0a.814.814,0,0,1,.249.356h0c.178.143.071.428.249.606h0a3.075,3.075,0,0,1,.249.356h0a1.279,1.279,0,0,1,.249.356h0c.178.178.107.428.249.641h0a1.03,1.03,0,0,1-.178,1.176h0c-.178.143-.178.428-.392.57h0c-.178.142-.142.428-.392.57h.036c-.107.107-.214.178-.321.285a.506.506,0,0,0-.071.214,1.01,1.01,0,0,1-.321.356h0c-.214.107-.178.392-.356.534h0c-.214.107-.178.392-.356.534h0c-.214.107-.178.392-.356.534h0c-.356.392-.463.962-.819,1.354h0c-.178.142-.143.428-.392.57h0c-.178.143-.142.428-.392.57h0c-.178.142-.178.427-.392.57h0c-.178.143-.178.428-.392.57h0l-.214.214-.214.214a1.5,1.5,0,0,0-.178.249c-.071.107-.142.249-.249.392-.071.071-.107.178-.178.249a3.885,3.885,0,0,1-.214.392C360.355,317.533,360.284,317.6,360.177,317.64Z" transform="translate(-327.136 -298.779)" fill="#f4a59f"/><path d="M307.1,357.364c-1-.285-1.176-1.1-1.211-1.959a4.425,4.425,0,0,1,.142-1.176c.178-1.389.356-2.814.57-4.2a2.755,2.755,0,0,0-.107-1.425,25.308,25.308,0,0,0,4.026.036c.428-.036.855.036,1.283.036,1.283.321,1.568,1.176.534,2.316a6.787,6.787,0,0,0-1.567,4.346c-.036.428.107.891.036,1.318A13.13,13.13,0,0,1,307.1,357.364Z" transform="translate(-292.69 -328.706)" fill="#fbb5ae"/><path d="M335.909,340.9c.285.107.534.249.5.606s-.071.677-.107,1.033l-.748,5.664a4.336,4.336,0,0,0-.036,1.176.9.9,0,0,0,.962.891.788.788,0,0,1-.677.214,2.427,2.427,0,0,0-1.5.392,2.3,2.3,0,0,1-1.461.107c-.285.214-.641-.071-.926.142h-.285a.512.512,0,0,1-.534-.57,35.727,35.727,0,0,1,1.033-7.766,27.241,27.241,0,0,1,2.921-1.354c.178-.178.428-.071.606-.249h0c.036-.107.178-.178.249-.285Z" transform="translate(-308.925 -323.749)" fill="#f7ada7"/><path d="M323.79,346.1a24.067,24.067,0,0,1-.427,5.522c-.071.677-.178,1.354-.285,2.031a.892.892,0,0,0,.214.819c-.356.321-.819.214-1.247.249a14.661,14.661,0,0,1-3.278.356,1.053,1.053,0,0,1-.5-1.14c.142-.855.249-1.746.356-2.636a2.443,2.443,0,0,1,.641-1.283,14.232,14.232,0,0,0,.962-1.1,1.325,1.325,0,0,0,.249-1.247c-.071-.392-.392-.534-.748-.606A33.537,33.537,0,0,1,323.79,346.1Z" transform="translate(-300.654 -327.097)" fill="#f9b1aa"/><path d="M304.605,390.962c-.321-.285-.214-.641-.142-.962A1.151,1.151,0,0,1,304.605,390.962Z" transform="translate(-291.729 -355.358)" fill="#fcb8b1"/><path d="M333.3,369.23c.285-.321.606-.178.926-.143A.969.969,0,0,1,333.3,369.23Z" transform="translate(-310.341 -341.855)" fill="#f9b1aa"/><path d="M355.1,356.149c.107-.071.214-.178.321-.249-.036.214-.036.392-.071.606C355.1,356.577,355.1,356.577,355.1,356.149Z" transform="translate(-324.375 -333.406)" fill="#fefefe"/><path d="M313.215,439.226c-.392-.214-.249-.57-.214-.926C313.286,438.549,313.215,438.906,313.215,439.226Z" transform="translate(-297.239 -386.451)" fill="#fbb5ae"/><path d="M304.973,394.362c-.356-.285-.214-.606-.178-.962A1.052,1.052,0,0,1,304.973,394.362Z" transform="translate(-291.954 -357.546)" fill="#fcb8b1"/><path d="M312.692,437.141a.636.636,0,0,1-.214-.641A.636.636,0,0,1,312.692,437.141Z" transform="translate(-296.93 -385.292)" fill="#fbb5ae"/><path d="M322.628,463.641a.575.575,0,0,1-.249-.641A.743.743,0,0,1,322.628,463.641Z" transform="translate(-303.303 -402.351)" fill="#fab2ab"/><path d="M323.949,466.406c-.249-.143-.249-.356-.249-.606A.644.644,0,0,1,323.949,466.406Z" transform="translate(-304.161 -404.154)" fill="#fab2ab"/><path d="M333.628,487.741a.575.575,0,0,1-.249-.641A.6.6,0,0,1,333.628,487.741Z" transform="translate(-310.385 -417.865)" fill="#f8b0a9"/><path d="M344.228,509.406a.527.527,0,0,1-.249-.606A.644.644,0,0,1,344.228,509.406Z" transform="translate(-317.208 -431.835)" fill="#f7ada7"/><path d="M391,363.449a3.077,3.077,0,0,1,.356-.249A3.081,3.081,0,0,1,391,363.449Z" transform="translate(-347.486 -338.105)" fill="#fefefe"/><path d="M334.349,489.256c-.071-.107-.178-.249-.249-.356A2.159,2.159,0,0,0,334.349,489.256Z" transform="translate(-310.856 -419.024)" fill="#f8b0a9"/><path d="M343.549,508.156a2.165,2.165,0,0,0-.249-.356C343.371,507.907,343.442,508.014,343.549,508.156Z" transform="translate(-316.779 -431.191)" fill="#f7ada7"/><path d="M333.049,486.556c-.071-.107-.178-.249-.249-.356A2.163,2.163,0,0,0,333.049,486.556Z" transform="translate(-310.02 -417.286)" fill="#f8b0a9"/><path d="M393.149,357.021c-.071-.107-.178-.214-.249-.321A1.109,1.109,0,0,1,393.149,357.021Z" transform="translate(-348.709 -333.921)" fill="#fefefe"/><path d="M377.949,313.856a2.157,2.157,0,0,0-.249-.356A1.277,1.277,0,0,1,377.949,313.856Z" transform="translate(-338.924 -306.111)" fill="#fefefe"/><path d="M375.149,309.256c-.071-.107-.178-.249-.249-.356A2.163,2.163,0,0,1,375.149,309.256Z" transform="translate(-337.121 -303.15)" fill="#fefefe"/><path d="M374.449,308.256a3.083,3.083,0,0,1-.249-.356C374.307,308.042,374.378,308.149,374.449,308.256Z" transform="translate(-336.671 -302.506)" fill="#fefefe"/><path d="M323.249,465.056A2.159,2.159,0,0,0,323,464.7C323.107,464.843,323.178,464.949,323.249,465.056Z" transform="translate(-303.711 -403.446)" fill="#fab2ab"/><path d="M294.907,315.385c.107-.107.214-.178.321-.285-.036.321-.036.713-.428.855C294.836,315.741,294.871,315.563,294.907,315.385Z" transform="translate(-285.557 -307.141)" fill="#fcb8b1"/><path d="M342.606,341.6c-.143.249-.356.249-.606.249A.644.644,0,0,1,342.606,341.6Z" transform="translate(-315.942 -324.2)" fill="#f5a9a3"/><path d="M343.956,340.9a3.076,3.076,0,0,1-.356.249A1.279,1.279,0,0,0,343.956,340.9Z" transform="translate(-316.972 -323.749)" fill="#f5a9a3"/><path d="M277,564.335a10.919,10.919,0,0,1-1.14-.178,2.154,2.154,0,0,1-1.674-2.28c.178-1.71.463-3.384.713-5.094a.882.882,0,0,1,.285-.5c.356-.285.677-.713,1.211-.784v.713a.71.71,0,0,0,.534.784,11.949,11.949,0,0,0,2.494.784,10.059,10.059,0,0,0,2.244.855c.285.107.57.143.748.356-2.387.036-2.529,1.852-2.814,3.527,0,.107-.036.178-.036.285C279.168,564.8,279.062,564.869,277,564.335Z" transform="translate(-272.277 -461.898)" fill="#408bfa"/><path d="M296,313.555a1.062,1.062,0,0,1,.428-.855C296.392,313.056,296.392,313.413,296,313.555Z" transform="translate(-286.33 -305.596)" fill="#fcb8b1"/><path d="M297.2,311.77a.635.635,0,0,1,.356-.57A.611.611,0,0,1,297.2,311.77Z" transform="translate(-287.102 -304.63)" fill="#fcb8b1"/><path d="M282.1,569.951a.7.7,0,0,1,.285.036c1.532.178,1.6.249,1.746-1.318.107-1.425.748-2.743.926-4.132.036-.285.285-.392.57-.249a4.888,4.888,0,0,0,1.853.356c.712.143,1.461.249,2.173.392a2.124,2.124,0,0,0,.392.214,25.414,25.414,0,0,0,4.667.677c.677.107,1.354.214,2.066.321-.036.463-.392.5-.713.534a14.769,14.769,0,0,1-2.779-.321c-1.283-.249-1.817.392-2.066,1.5a8.525,8.525,0,0,0-.107,1.888c-.036,1.674-.392,2-2.138,2.066-1.283-.321-2.743.036-3.848-.962-.427-.392-1-.321-1.5-.463C283.1,570.307,282.528,570.343,282.1,569.951Z" transform="translate(-277.382 -467.514)" fill="#3b88f6"/><path d="M319.314,569.565a.636.636,0,0,0,.641-.214c.57-.036,1.14-.071,1.746-.071a1.638,1.638,0,0,0,1-.143c.891.214,1.781-.143,2.672,0-1.176,1.389-1.14,3.135-1.389,4.809-.356,2.351-.463,2.458-2.779,2.244a4.328,4.328,0,0,0-1.176,0,2.369,2.369,0,0,1-1.746-.392c-.356-.57.178-1,.249-1.5a11.083,11.083,0,0,0,.427-3.6A1.187,1.187,0,0,1,319.314,569.565Z" transform="translate(-300.595 -470.654)" fill="#3181ec"/><path d="M345.3,541.213a4,4,0,0,0,.534-1.817l1.5-11.115a2.877,2.877,0,0,1,.57-1.781,2.594,2.594,0,0,1,.606,1c1.247,2.423,2.458,4.809,3.669,7.232,1.211,1.354,2.28,2.743,2.137,4.7a4.423,4.423,0,0,1-1.781.891,51.1,51.1,0,0,1-6.163,1.282A1.233,1.233,0,0,1,345.3,541.213Z" transform="translate(-318.066 -443.229)" fill="#f5a8a2"/><path d="M366.666,551.241a1.407,1.407,0,0,0-.178-1c-.641-1.211-1.247-2.422-1.888-3.634.534-.107,1.033-.214,1.568-.356a47.736,47.736,0,0,1,6.27-1.283,10.016,10.016,0,0,1,1.033,0c.107.5-.321.57-.606.641-1.568.285-1.532,1.71-1.959,2.779-.143.392.285.57.5.819-.214,1.247-1.389.962-2.138,1.425C368.412,550.814,367.7,551.633,366.666,551.241Z" transform="translate(-330.491 -455.11)" fill="#6ea5f6"/><path d="M381.63,548.7h-.143c-1.069.036-1.176-.071-.819-.962a14.813,14.813,0,0,0,.819-2.209.8.8,0,0,1,.713-.641c.5-.143,1.069-.036,1.5-.463a1.007,1.007,0,0,1,.641-.143,1.41,1.41,0,0,0,.926-.178l1.176.107c.249.036.463.143.463.427-.606,2.209-2.494,3.1-4.311,4.026a2.668,2.668,0,0,1-.748.071A.452.452,0,0,0,381.63,548.7Z" transform="translate(-340.717 -454.559)" fill="#74a7f5"/><path d="M331.009,567.8c.392,0,.784.036,1.14.036a1.261,1.261,0,0,1,.5,1.176,35.916,35.916,0,0,1-.748,5.843c-.249,1.211-1.318.962-2.138,1.1a8.144,8.144,0,0,1-2.458.107c-1.389-.392-2.992.036-4.2-1.033.463-.356.962-.107,1.425-.071,1.959.249,1.817.356,2.066-1.568.143-1.176.356-2.351.463-3.527.071-.784.321-1.318,1.211-1.389.071,0,.142-.107.214-.178a7.77,7.77,0,0,1,1.817-.321A3.459,3.459,0,0,0,331.009,567.8Z" transform="translate(-303.775 -469.816)" fill="#2d7de8"/><path d="M362.192,343.4c-.036.178-.071.392-.107.57a.784.784,0,0,0-.285.036A.542.542,0,0,1,362.192,343.4Z" transform="translate(-328.688 -325.359)" fill="#f5a9a3"/><path d="M363.192,341.9c-.036.178-.071.392-.107.57H362.8C362.836,342.185,362.907,341.971,363.192,341.9Z" transform="translate(-329.332 -324.393)" fill="#f5a9a3"/><path d="M307.614,575.568c-1.71-.249-3.42-.463-5.094-.713a1.475,1.475,0,0,1-.819-.321c.143,0,.285.036.428.036.819,0,1.283-.392,1.176-1.1-.107-.606.071-1.176-.036-1.746-.214-1.033.606-1.71.855-2.565.036-.178.321-.214.534-.178.5.071.962.107,1.461.178.891.107,1.746.249,2.636.356-.036.178-.036.392-.071.57-.071.677.428,1.354.178,1.995a5.56,5.56,0,0,0-.392,1.852A2.473,2.473,0,0,1,307.614,575.568Z" transform="translate(-289.999 -470.566)" fill="#3583ef"/><path d="M374.593,561.767a3.2,3.2,0,0,0-1.425-.036,5.776,5.776,0,0,1-1.568-.036c.641-2.992.926-6.021,1.354-9.049a2.61,2.61,0,0,1,.677-1.746c.356-.356.855-.392,1.282-.606.356-.143.748-.214.962-.57h0c.178-.178.463-.071.641-.214a9.377,9.377,0,0,0,4.631-3.812c-.036.392-.071.784-.143,1.176-.748,2.708-1.354,5.415-1.959,8.158-.428,1.959-.891,3.919-1.354,5.878-.142.57-.178.57-.784.677A8.477,8.477,0,0,0,374.593,561.767Z" transform="translate(-334.997 -455.589)" fill="#2075dc"/><path d="M365.1,560.2c-.428,3.171-.855,6.306-1.247,9.476a1.714,1.714,0,0,1-.784,1.318,17.849,17.849,0,0,1-4.774,0,60.766,60.766,0,0,1,.962-8.016c.143-1,1.1-.962,1.746-1.318.534-.214,1.1-.427,1.639-.606C363.5,560.877,364.214,560.307,365.1,560.2Z" transform="translate(-326.435 -464.923)" fill="#2578e0"/><path d="M350.157,564.3c-.036.036-.036.107-.071.107a4.5,4.5,0,0,0-1.1.713,3.259,3.259,0,0,0-.321,1.567c-.249,1.817-.5,3.6-.713,5.415a3.386,3.386,0,0,1-.5,1.532c-.107.036-.178.107-.285.107a37.512,37.512,0,0,1-5.664-.356c.321-.321.748-.143,1.1-.143.57,0,.677-.107.784-.641.214-1.389.392-2.814.57-4.24a7.293,7.293,0,0,0,.036-2.779c.071-.036.178-.107.249-.143A52.565,52.565,0,0,0,350.157,564.3Z" transform="translate(-315.62 -467.563)" fill="#297be3"/><path d="M384.341,556.278a.614.614,0,0,1-.641.214A.614.614,0,0,1,384.341,556.278Z" transform="translate(-342.786 -462.391)" fill="#6ea5f6"/></g></g></svg>